<svg viewBox="0 0 150 100" xmlns="http://www.w3.org/2000/svg" xmlns:bx="https://boxy-svg.com" class="fill-neutral-400 dark:fill-neutral-800">
  <defs>
    <style bx:fonts="AR One Sans">@import url(https://fonts.googleapis.com/css2?family=AR+One+Sans%3Aital%2Cwght%400%2C400..700&amp;display=swap);</style>
  </defs>
  <rect x="-3.885" y="-0.995" width="157.298" height="48.249" style="" transform="matrix(1, 0, 0, 1, 1.4210854715202004e-14, 0)"/>
  <text style="fill: rgb(255, 255, 255); font-family: 'AR One Sans'; font-size: 20px; font-weight: 700; white-space: pre; text-anchor: end;" y="30.046" x="78.797" transform="matrix(1, 0, 0, 1, 1.4210854715202004e-14, 0)">?</text>
  <rect x="-4.893" y="49.812" width="79.275" height="51.273" style="" transform="matrix(1, 0, 0, 1, 1.4210854715202004e-14, 0)"/>
  <rect x="77.688" y="49.812" width="75.646" height="51.273" style="" transform="matrix(1, 0, 0, 1, 1.4210854715202004e-14, 0)"/>
  <g transform="matrix(0.4019410014152527, 0, 0, 0.4019410014152527, 15.37055873870851, 48.61488342285157)">
    <defs/>
    <g transform="matrix(.8907 0 0 .8907 3.6618e-5 .04843)">
      <path d="m33.772 55.509c-0.4167 0-1.101 0.2515-1.4034 0.5658l-13.472 13.753c-0.60451 0.6108-0.60361 1.3626 0 1.9652l21.177 20.113 13.753 13.754c0.3054 0.305 0.70589 0.557 1.1227 0.557 0.3081 0 0.60001-0.323 0.8416-0.557l13.753-13.473 43.506-43.506c0.612-0.60181 0.61002-1.641 0-2.2455l-13.754-13.753c-0.61099-0.6018-1.362-0.61079-1.965 0l-42.382 42.382-20.054-18.99c-0.3027-0.3054-0.70601-0.5658-1.1227-0.5658h3.97e-4z" stroke-width=".616" style="fill: rgba(255, 255, 255, 0.765);"/>
    </g>
  </g>
  <g transform="matrix(2.125, 0, 0, 2.125, 96.13546752929689, 57.000602722167976)" style="">
    <defs/>
    <g transform="translate(-52.11 -582.91)">
      <path d="m64.792 582.91-4.6811 4.6811-4.6811-4.6811-3.3189 3.3189 4.6811 4.6811-4.6811 4.6811 3.3189 3.3189 4.6811-4.6811 4.6811 4.6811 3.3189-3.3189-4.6811-4.6811 4.6811-4.6811-3.3189-3.3189z" style="fill: rgba(255, 255, 255, 0.765);"/>
    </g>
  </g>
</svg>